<svg xmlns="http://www.w3.org/2000/svg" viewBox="0 0 24 24" fill="currentColor">
  <path
    fill-rule="evenodd"
    clip-rule="evenodd"
    d="M10.8 3.2C10.8 2.53726 11.3373 2 12 2C12.6627 2 13.2 2.53726 13.2 3.2V4.04294C13.8501 4.19713 14.4644 4.452 15.0245 4.78923L15.6213 4.19239C16.0899 3.72376 16.8497 3.72376 17.3184 4.19239C17.787 4.66102 17.787 5.42082 17.3184 5.88945L16.7215 6.48629C17.0588 7.04643 17.3136 7.66067 17.4678 8.31078H18.3108C18.9735 8.31078 19.5108 8.84804 19.5108 9.51078C19.5108 10.1735 18.9735 10.7108 18.3108 10.7108H17.4678C17.3136 11.3609 17.0588 11.9751 16.7215 12.5353L17.3184 13.1321C17.787 13.6007 17.787 14.3605 17.3184 14.8292C16.8497 15.2978 16.0899 15.2978 15.6213 14.8292L15.0245 14.2323C14.4644 14.5696 13.8501 14.8244 13.2 14.9786V15.8216C13.2 16.4843 12.6627 17.0216 12 17.0216C11.3373 17.0216 10.8 16.4843 10.8 15.8216V14.9786C10.1499 14.8244 9.53564 14.5696 8.9755 14.2323L8.37866 14.8292C7.91003 15.2978 7.15023 15.2978 6.6816 14.8292C6.21297 14.3605 6.21297 13.6007 6.6816 13.1321L7.27844 12.5353C6.94121 11.9751 6.68635 11.3609 6.53216 10.7108H5.68922C5.02648 10.7108 4.48922 10.1735 4.48922 9.51078C4.48922 8.84804 5.02648 8.31078 5.68922 8.31078H6.53216C6.68635 7.66067 6.94121 7.04643 7.27844 6.48629L6.6816 5.88945C6.21297 5.42082 6.21297 4.66102 6.6816 4.19239C7.15023 3.72376 7.91003 3.72376 8.37866 4.19239L8.9755 4.78923C9.53564 4.452 10.1499 4.19713 10.8 4.04294V3.2ZM12 6.71078C10.4536 6.71078 9.2 7.96438 9.2 9.51078C9.2 11.0572 10.4536 12.3108 12 12.3108C13.5464 12.3108 14.8 11.0572 14.8 9.51078C14.8 7.96438 13.5464 6.71078 12 6.71078Z"
  />
  <path d="M5.6 19.2C4.93726 19.2 4.4 19.7373 4.4 20.4C4.4 21.0627 4.93726 21.6 5.6 21.6H18.4C19.0627 21.6 19.6 21.0627 19.6 20.4C19.6 19.7373 19.0627 19.2 18.4 19.2H5.6Z" />
</svg>
